<svg width="193" height="49" viewBox="0 0 193 49" xmlns="http://www.w3.org/2000/svg"><title>vlo-logo-white</title><g fill-rule="nonzero" fill="#F6F4F3"><path d="M3.497 14.209c0-2.241-.07-5.953-.104-6.583-.07-.91-.242-1.26-1.28-1.26H.484c-.208 0-.242-.176-.242-.35v-.771C.243 5.07.277 5 .485 5c.38 0 1.627.105 4.5.105C8.343 5.105 9.797 5 10.11 5c.277 0 .311.105.311.28v.805c0 .176-.069.28-.346.28H7.997c-1.073 0-1.212.35-1.212 1.366 0 .455-.103 5.742-.103 8.193v3.011c0 .596 0 8.159.103 9.595.762.07 7.617.14 8.69 0 2.042-.315 4.12-4.517 4.604-5.883.07-.14.139-.21.277-.14l.554.21c.104.07.104.105.07.315-.105.245-1.49 6.023-1.697 6.968-.45-.035-3.15-.07-6.231-.07-3.082-.035-6.474-.035-8.344-.035-1.35 0-2.354.035-3.08.035-.693.035-1.109.07-1.35.07C.034 30 0 29.93 0 29.755v-.876c0-.175.035-.245.243-.245h1.661c1.281 0 1.489-.49 1.489-.946 0-.664.104-9.383.104-11.52v-1.96zM27.449 24.701l-1.406 3.83c-.211.715-.106 1.181.633 1.181h.878c.211 0 .246.107.246.25v.788c0 .143-.035.25-.21.25-.282 0-2.145-.107-2.707-.107-.668 0-2.426.107-2.742.107C22 31 22 30.821 22 30.678v-.752c0-.143 0-.214.14-.214h.493a1.867 1.867 0 0 0 1.441-.752c.246-.286 2.04-4.58 2.883-6.37.246-.501 2.32-5.368 2.531-5.977.07-.215.282-.608.035-.715-.07-.072-.175-.251-.14-.358-.035-.072.035-.18.351-.25a5.16 5.16 0 0 0 1.97-1.039.445.445 0 0 1 .421-.25c.211 0 .281.143.352.393.492 1.432 2.285 6.55 2.742 7.98a68.12 68.12 0 0 0 2.285 6.371c.363.578.98.939 1.652.967h.668c.141 0 .176.107.176.214v.752c0 .107-.035.322-.246.322-.422 0-2.285-.107-3.094-.107-.668 0-2.742.107-3.199.107-.246 0-.281-.179-.281-.322v-.752c0-.107.035-.214.176-.214h.562a.537.537 0 0 0 .419-.173.557.557 0 0 0 .144-.436c-.14-.716-1.09-3.579-1.371-4.402h-5.661zm5.309-1.145L30.894 17.4c-.07-.215-.105-.357-.21-.357-.106 0-.176.107-.282.393-.106.287-2.25 5.762-2.426 6.12h4.782zM48.479 22.439h.18a2.116 2.116 0 0 0 1.012-.28 58.346 58.346 0 0 0 4.767-5.264c.18-.316.072-.701-.361-.701h-.145c-.108 0-.18-.07-.18-.211v-.807c0-.14.072-.176.216-.176.18 0 1.806.106 2.89.106.722 0 1.878-.106 2.094-.106.109 0 .181.07.181.21v.808c0 .14-.036.246-.217.246h-.506a3.354 3.354 0 0 0-1.733.42 60.01 60.01 0 0 0-5.273 5.334c.325.35 6.248 7.088 6.501 7.263.375.279.83.438 1.3.456h.578c.145 0 .217.105.217.246v.737c0 .14-.072.28-.217.28-.217 0-2.167-.105-3.033-.105-.506 0-2.745.105-2.998.105-.18 0-.253-.105-.253-.28v-.737a.2.2 0 0 1 .06-.152.211.211 0 0 1 .157-.059h.18c.361 0 .47-.28.361-.456-.216-.386-4.297-5.299-4.659-5.544a1.658 1.658 0 0 0-.866-.28h-.253v1.157c0 1.088.072 4.281.072 4.597 0 .315.397.491.723.491h.758c.144 0 .216.07.216.246v.737c0 .14-.072.28-.216.28-.217 0-1.987-.105-2.998-.105-.723 0-2.71.105-2.853.105-.109 0-.181-.105-.181-.28v-.737c0-.176.072-.246.217-.246h.794a.656.656 0 0 0 .686-.561c.073-.316.037-3.965.037-6.527v-1.052c0-.982-.109-4.456-.109-4.807 0-.246-.072-.526-.758-.526h-.65c-.145 0-.18-.106-.18-.211v-.843c0-.105.035-.21.252-.21.253 0 1.842.105 3.106.105.868 0 2.42-.105 2.673-.105.18 0 .217.105.217.28v.773a.182.182 0 0 1-.054.158.194.194 0 0 1-.163.052h-.722c-.614 0-.795.14-.795.596 0 .422-.072 3.79-.072 4.667v.913zM66.905 22.158c.205 0 2.229-.105 2.503-.175.892-.246 1.235-.737 1.235-1.825 0-.14.034-.176.171-.176l.755.036c.137 0 .24.07.205.21-.068.316-.068 2.176-.068 2.491 0 .772.103 1.86.137 2.316 0 .14-.069.175-.171.175l-.72.07c-.104 0-.172 0-.207-.14-.171-.877-.377-1.438-1.268-1.649a11.933 11.933 0 0 0-2.572-.245v1.193c0 1.228.068 3.263.068 3.718 0 1.65.994 1.755 2.47 1.755a4.896 4.896 0 0 0 3.634-.982 18.266 18.266 0 0 0 1.818-2.351c.171-.246.343-.28.446-.21l.549.316c.086.047.129.149.102.245l-1.234 3.72c-.069.175-.24.35-.378.35-.102 0-.617-.035-2.023-.07-1.372 0-3.635-.035-7.236-.035-.31 0-.926.035-1.544.035-.583.035-1.166.07-1.371.07-.172 0-.206-.105-.206-.246v-.807c0-.14.069-.21.24-.21h.309c1.611 0 1.715-.14 1.715-.632v-7.473c0-1.86-.034-4.14-.069-4.492-.103-.736-.308-.876-1.68-.876h-.343c-.103 0-.137-.07-.137-.246v-.842a.166.166 0 0 1 .046-.128.158.158 0 0 1 .125-.048c.515 0 2.4.106 2.915.106l7.682-.035c.343 0 .79-.07.926-.07.069 0 .138.07.206.49.069.316 1.029 3.334 1.098 3.58.034.14.034.21-.035.245l-.548.246c-.069.035-.206.035-.309-.14-.069-.106-1.715-2.07-2.298-2.632a2.02 2.02 0 0 0-1.303-.526l-3.635-.07v5.964zM84.271 28.703C81.725 27.19 79 23.387 79 18.246a13.532 13.532 0 0 1 3.335-8.767c2.315-2.942 5.934-4.608 9.718-4.471a12.217 12.217 0 0 1 8.033 2.781c3.158 2.612 4.96 6.474 4.913 10.527a12.692 12.692 0 0 1-2.69 7.712c-2.38 3.246-6.256 5.109-10.327 4.964a15.932 15.932 0 0 1-7.71-2.289zm17.214-10.105c0-7.711-5.595-12.252-9.575-12.252a6.962 6.962 0 0 0-5.666 2.078 12.432 12.432 0 0 0-3.587 8.696c0 9.26 6.563 12.534 9.611 12.534 7.89 0 9.217-7.922 9.217-11.056zM109.478 28.953a9.175 9.175 0 0 1-2.475-6.525c0-2.263.835-4.442 2.336-6.096a7.528 7.528 0 0 1 5.577-2.33 8.714 8.714 0 0 1 4.287 1.04c.314.179.558.179.593 0l.105-.395c.034-.108.139-.179.453-.179.418.036.523.07.523.394 0 .395.348 3.765.383 4.626.035.18 0 .358-.104.358l-.838.144c-.14.035-.174-.072-.244-.287a6.469 6.469 0 0 0-1.534-2.797 5.442 5.442 0 0 0-3.66-1.685c-3.38 0-5.054 3.514-5.019 6.382a9.304 9.304 0 0 0 2.196 5.952 4.497 4.497 0 0 0 3.66 1.65c2.093.124 4.095-.899 5.264-2.69.139-.25.243-.287.348-.215l.593.394c.14.072.07.252-.035.467-1.33 2.046-3.444 3.412-5.814 3.755a8.236 8.236 0 0 1-6.595-1.962zM127.2 29.423a8.354 8.354 0 0 1-3.197-6.735 8.446 8.446 0 0 1 1.976-5.661 7.86 7.86 0 0 1 6.718-3.01 7.78 7.78 0 0 1 5.389 1.899 8.793 8.793 0 0 1 2.91 6.807 8.38 8.38 0 0 1-1.438 4.98C138.193 29.638 136.11 31 132.41 31a9.918 9.918 0 0 1-5.208-1.577zm10.706-6.628c0-4.693-3.197-7.524-5.317-7.524a3.975 3.975 0 0 0-3.52 1.326 7.979 7.979 0 0 0-2.012 5.482c0 5.696 3.844 7.703 5.568 7.703 4.922 0 5.281-5.052 5.281-6.987zM159.158 30.34c0 .312-.109.66-.543.66a1.646 1.646 0 0 1-.83-.347c-.254-.244-1.483-1.67-2.965-3.375l-3.614-4.139c-.867-.973-3.795-4.73-4.373-5.356h-.072v4.765c0 2.087.144 5.565.217 5.878.108.8.505 1.183.867 1.183h.76c.18 0 .18.069.18.208v.836c0 .138 0 .208-.18.208-.254 0-1.7-.104-2.748-.104-.506 0-2.132.104-2.421.104-.072 0-.109-.07-.109-.244v-.904c0-.07.037-.104.145-.104h.831c.58-.03 1.037-.486 1.048-1.044.036-.417.109-2.886.109-6.817v-3.652a1.695 1.695 0 0 0-.523-1.34 1.839 1.839 0 0 0-1.393-.503h-.325a.196.196 0 0 1-.163-.052.18.18 0 0 1-.054-.157v-.836a.196.196 0 0 1 .06-.15.213.213 0 0 1 .157-.058c.072 0 .47.035.94.035.47.035 1.048.07 1.445.07.578 0 1.337-.07 1.771-.07.506 0 .723.07.868.278.108.14 4.264 5.183 5.023 6.052.651.73 4.012 4.8 4.446 5.252h.144v-2.295c0-1.982-.036-3.06-.108-4.174a16.486 16.486 0 0 0-.289-3.27 1.388 1.388 0 0 0-1.338-.625h-.614c-.181 0-.253-.07-.253-.244v-.835c0-.104.072-.173.253-.173.253 0 1.807.104 2.963.104.759 0 2.024-.104 2.277-.104.181 0 .253.07.253.278v.73c0 .14-.071.244-.216.244h-.362c-.904 0-1.084.243-1.157.73-.18 1.6-.108 3.791-.108 5.217v8.14zM166.905 22.158c.206 0 2.229-.105 2.503-.175.892-.246 1.234-.737 1.234-1.825 0-.14.034-.176.172-.176l.755.036c.136 0 .24.07.205.21-.069.316-.069 2.176-.069 2.491 0 .772.103 1.86.137 2.316 0 .14-.067.175-.17.175l-.721.07c-.102 0-.172 0-.206-.14-.17-.877-.378-1.438-1.27-1.649a11.93 11.93 0 0 0-2.57-.245v1.193c0 1.228.068 3.263.068 3.718 0 1.65.994 1.755 2.469 1.755a4.897 4.897 0 0 0 3.635-.982 18.225 18.225 0 0 0 1.817-2.351c.172-.246.344-.28.446-.21l.55.316c.086.047.129.149.102.245l-1.235 3.72c-.068.175-.24.35-.376.35-.104 0-.618-.035-2.024-.07-1.371 0-3.636-.035-7.236-.035-.309 0-.926.035-1.544.035-.583.035-1.166.07-1.371.07-.172 0-.206-.105-.206-.246v-.807c0-.14.069-.21.24-.21h.309c1.611 0 1.715-.14 1.715-.632v-7.473c0-1.86-.034-4.14-.069-4.492-.103-.736-.308-.876-1.68-.876h-.343c-.103 0-.137-.07-.137-.246v-.842a.166.166 0 0 1 .046-.128.158.158 0 0 1 .125-.048c.515 0 2.4.106 2.915.106l7.682-.035c.343 0 .789-.07.926-.07.069 0 .137.07.206.49.068.316 1.03 3.334 1.097 3.58.034.14.034.21-.034.245l-.549.246c-.068.035-.205.035-.308-.14-.068-.106-1.716-2.07-2.299-2.632a2.018 2.018 0 0 0-1.303-.526l-3.634-.07v5.964zM183.904 22.158c.206 0 2.229-.105 2.503-.175.892-.246 1.235-.737 1.235-1.825 0-.14.035-.176.172-.176l.754.036c.137 0 .24.07.206.21-.068.316-.068 2.176-.068 2.491 0 .772.103 1.86.137 2.316 0 .14-.07.175-.171.175l-.72.07c-.104 0-.172 0-.207-.14-.171-.877-.377-1.438-1.268-1.649a11.94 11.94 0 0 0-2.573-.245v1.193c0 1.228.07 3.263.07 3.718 0 1.65.993 1.755 2.468 1.755a4.896 4.896 0 0 0 3.635-.982 18.307 18.307 0 0 0 1.818-2.351c.172-.246.343-.28.446-.21l.55.316c.085.047.127.149.101.245l-1.234 3.72c-.069.175-.24.35-.378.35-.102 0-.617-.035-2.023-.07-1.372 0-3.635-.035-7.236-.035-.309 0-.926.035-1.544.035-.583.035-1.166.07-1.372.07-.171 0-.205-.105-.205-.246v-.807c0-.14.068-.21.24-.21h.308c1.612 0 1.716-.14 1.716-.632v-7.473c0-1.86-.035-4.14-.068-4.492-.103-.736-.309-.876-1.681-.876h-.343c-.103 0-.137-.07-.137-.246v-.842a.166.166 0 0 1 .046-.128.158.158 0 0 1 .125-.048c.515 0 2.4.106 2.915.106l7.682-.035c.344 0 .79-.07.927-.07.068 0 .137.07.205.49.07.316 1.03 3.334 1.098 3.58.034.14.034.21-.035.245l-.548.246c-.069.035-.206.035-.308-.14-.07-.106-1.716-2.07-2.298-2.632a2.022 2.022 0 0 0-1.304-.526l-3.635-.07-.001 5.964zM20 0h.948l3.045 7.894L27.065 0H28l-3.593 9h-.881zM35 0h.83v9H35zM44.84 7.197c.208.343.52.624.899.81.389.182.822.274 1.26.267.28.002.56-.04.825-.121.246-.075.474-.19.673-.339.19-.144.345-.324.453-.526.114-.217.171-.455.167-.696a1.244 1.244 0 0 0-.207-.738c-.14-.196-.33-.36-.552-.477a4.29 4.29 0 0 0-.78-.32c-.289-.09-.586-.178-.893-.267-.306-.089-.603-.19-.892-.303a3.052 3.052 0 0 1-.78-.44 1.997 1.997 0 0 1-.553-.684 2.248 2.248 0 0 1-.207-1.017c-.007-.35.078-.695.247-1.01.159-.287.386-.54.666-.737.29-.202.617-.354.966-.448a4.293 4.293 0 0 1 1.146-.15c.49-.005.978.08 1.432.247.456.177.85.464 1.14.829l-.76.495a2.178 2.178 0 0 0-.78-.634 2.459 2.459 0 0 0-1.058-.212 3.149 3.149 0 0 0-.814.103 2.123 2.123 0 0 0-.672.302 1.414 1.414 0 0 0-.633 1.216c-.027.359.103.713.36.986.253.238.56.424.899.544.382.14.774.257 1.172.35.406.096.8.232 1.173.406.357.168.666.41.9.708.26.372.387.81.36 1.252.007.355-.075.706-.24 1.028-.154.29-.375.548-.647.756a2.888 2.888 0 0 1-.939.465c-.357.106-.73.159-1.106.158a4.846 4.846 0 0 1-1.719-.296A3.107 3.107 0 0 1 44 7.705l.84-.508zM58 0h.83v9H58zM70.08.763H67V0h7v.763h-3.08V9h-.84zM165 40.478a.481.481 0 1 1 .962.006.481.481 0 0 1-.962-.006zM172 40.133a1.94 1.94 0 0 1-.75.665c-.291.136-.605.205-.923.202a2.361 2.361 0 0 1-.944-.185 2.119 2.119 0 0 1-.735-.517 2.398 2.398 0 0 1-.477-.793 2.858 2.858 0 0 1-.17-1.005 2.829 2.829 0 0 1 .17-1.001c.108-.294.27-.562.477-.79.208-.225.459-.403.735-.52.3-.129.62-.193.944-.189a2.14 2.14 0 0 1 .855.171c.276.124.516.322.696.575l-.342.302a1.27 1.27 0 0 0-.538-.49 1.555 1.555 0 0 0-.671-.155 1.881 1.881 0 0 0-.792.162 1.765 1.765 0 0 0-.601.443 1.996 1.996 0 0 0-.382.665 2.624 2.624 0 0 0 0 1.654 2 2 0 0 0 .382.665c.169.19.373.341.6.443.252.111.521.166.793.162.248-.002.493-.063.715-.178.12-.063.232-.14.334-.229.109-.095.203-.207.28-.332l.344.275zM176 38.5a2.655 2.655 0 0 1 .184-1.001 2.317 2.317 0 0 1 1.302-1.31 2.827 2.827 0 0 1 2.028 0c.297.117.565.295.789.52.222.228.396.496.512.79.126.319.189.659.185 1.001.004.344-.06.685-.185 1.005a2.37 2.37 0 0 1-.512.793 2.292 2.292 0 0 1-.79.518 2.88 2.88 0 0 1-2.027 0 2.283 2.283 0 0 1-1.302-1.311A2.682 2.682 0 0 1 176 38.5zm.45 0c-.002.282.047.562.144.827.09.246.23.472.41.665.181.19.401.342.646.444a2.326 2.326 0 0 0 1.701 0 1.902 1.902 0 0 0 1.055-1.11 2.453 2.453 0 0 0 0-1.653 1.89 1.89 0 0 0-1.055-1.109 2.32 2.32 0 0 0-1.701 0 1.893 1.893 0 0 0-1.056 1.11 2.345 2.345 0 0 0-.143.826zM186 36h.698l1.82 4.195 1.82-4.195H191v5h-.466v-4.407h-.014L188.616 41h-.205l-1.931-4.407h-.014V41H186zM107 46.632c-4.462-.257-8.727.931-13.16.694a30.422 30.422 0 0 1-8.645-1.853c-7.164-2.524-13.684-.279-21.037-.579-3.85-.152-7.555-2.082-11.45-2.73-5.89-.868-11.21.534-17.061.558l.088.007c-7.346-.474-13.664-3.07-20.991-.832a40.835 40.835 0 0 1-6.087 1.675c-2.235.324-2.185.773.005 1.14 4.11.688 8.405-.223 12.589.18a.33.33 0 0 1-.064 0c6.545 1.096 12.03 3.767 18.855 3.197 4.172-.675 7.677-1.655 11.954-1.405 4.24.4 8.062 1.982 12.403 2.03 6.164.068 11.958-2.63 18.085-1.362 4.886 1.002 9.245 2.153 14.342 1.412 2.307-.336 4.497-1.134 6.817-1.405 1.048-.122 3.244.283 3.357-.727zM49 36.839c5.098-.016 9.863 1.624 14.925 1.63 3.382-.034 6.741-.569 9.979-1.588 8.343-2.448 15.594.537 23.986.663 4.39.085 8.757-1.921 13.236-2.42 6.769-.63 12.718 1.325 19.376 1.72l-.102.002c8.396-.084 15.782-2.67 23.953.37a45.824 45.824 0 0 0 6.803 2.312c2.52.513 2.426 1.027-.091 1.311-4.73.535-9.551-.786-14.343-.586a.56.56 0 0 0 .074.005c-7.533.838-13.973 3.581-21.699 2.488-4.698-1.039-8.615-2.392-13.501-2.372-4.854.193-9.323 1.773-14.268 1.554-7.02-.311-13.413-3.785-20.481-2.71-5.636.846-10.683 1.895-16.427.719-2.6-.532-5.034-1.59-7.654-2.048-1.183-.208-3.712.12-3.766-1.05z"/></g></svg>