<?xml version="1.0" encoding="UTF-8"?>
<svg width="193px" height="49px" viewBox="0 0 193 49" version="1.1" xmlns="http://www.w3.org/2000/svg" xmlns:xlink="http://www.w3.org/1999/xlink">
    <!-- Generator: Sketch 47.1 (45422) - http://www.bohemiancoding.com/sketch -->
    <title>vlo-logo-white</title>
    <desc>Created with Sketch.</desc>
    <defs></defs>
    <g id="Symbols" stroke="none" stroke-width="1" fill="none" fill-rule="evenodd">
        <g id="top-nav" transform="translate(-40.000000, -26.000000)" fill="#F6F4F3">
            <g id="nav">
                <g id="vlo-logo-white" transform="translate(40.000000, 26.000000)">
                    <g id="vlo-logo-color">
                        <path d="M3.49691638,14.2086358 C3.49691638,11.9677533 3.4276492,8.25603809 3.39281994,7.62600635 C3.32355276,6.71564165 3.15058048,6.3654481 2.11206196,6.3654481 L0.484968091,6.3654481 C0.277166553,6.3654481 0.242728633,6.19049975 0.242728633,6.01515559 L0.242728633,5.24500685 C0.242728633,5.0700585 0.277166553,5 0.484968091,5 C0.865741908,5 2.11206196,5.10488985 4.98537806,5.10488985 C8.34317306,5.10488985 9.79739249,5 10.1088013,5 C10.38587,5 10.4203079,5.10488985 10.4203079,5.27973924 L10.4203079,6.08521409 C10.4203079,6.26055825 10.3510408,6.3654481 10.0744612,6.3654481 L7.99742418,6.3654481 C6.92397857,6.3654481 6.78544421,6.7157406 6.78544421,7.73099515 C6.78544421,8.1861775 6.68173911,13.4734174 6.68173911,15.9242774 L6.68173911,18.9354076 C6.68173911,19.530707 6.68173911,27.0936607 6.78544421,28.5296621 C7.54689401,28.5997206 14.4016054,28.6697791 15.4749532,28.5296621 C17.5171609,28.2145967 19.5946871,24.0125709 20.0791661,22.6471229 C20.1484332,22.5070059 20.2177004,22.4369473 20.3562348,22.5070059 L20.909883,22.7171814 C21.0139795,22.7872399 21.0139795,22.8220712 20.9791502,23.0322467 C20.8754451,23.2772535 19.4905907,29.0549029 19.2827892,30 C18.8327482,29.9651687 16.1325022,29.9299415 13.0515802,29.9299415 C9.97036477,29.8947143 6.57764267,29.8947143 4.70840717,29.8947143 C3.35828418,29.8947143 2.35430142,29.9295457 1.62719171,29.9295457 C0.935009088,29.9647728 0.519406011,29.9996042 0.277068718,29.9996042 C0.0347314247,29.9996042 0,29.9295457 0,29.7545973 L0,28.879064 C0,28.7041156 0.0348292597,28.6340571 0.242630798,28.6340571 L1.90426042,28.6340571 C3.1850184,28.6340571 3.39281994,28.1441424 3.39281994,27.6884653 C3.39281994,27.0236022 3.49691638,18.3048811 3.49691638,16.1687895 L3.49691638,14.2086358 Z" id="Shape" fill-rule="nonzero"></path>
                        <path d="M27.4489907,24.7014017 L26.0426554,28.5306655 C25.8316305,29.2462314 25.9373417,29.7119814 26.6757298,29.7119814 L27.5543044,29.7119814 C27.7653293,29.7119814 27.8003014,29.8191898 27.8003014,29.9624041 L27.8003014,30.7495772 C27.8003014,30.8927915 27.7653293,31 27.5897733,31 C27.3084069,31 25.4450498,30.8927915 24.8828137,30.8927915 C24.2147671,30.8927915 22.4567237,31 22.1406832,31 C22,31 22,30.8211844 22,30.6779701 L22,29.9262971 C22,29.7830828 22,29.7119814 22.1406832,29.7119814 L22.6330745,29.7119814 C23.2004108,29.696035 23.7302229,29.4197266 24.0743819,28.9603084 C24.3203789,28.6738798 26.113295,24.3793718 26.9569969,22.5896985 C27.2033912,22.088954 29.2772764,17.2215887 29.4884006,16.6131301 C29.5587422,16.3983086 29.769767,16.0046715 29.5233727,15.8975642 C29.4538259,15.8259571 29.3477174,15.6467369 29.3831862,15.5395284 C29.3478167,15.4679212 29.4181583,15.3607128 29.7343975,15.2891056 C30.4565329,15.091465 31.1282072,14.7373553 31.7034657,14.2510041 C31.7827062,14.0897568 31.9481317,13.991486 32.1250186,14.0005813 C32.3360435,14.0005813 32.4063851,14.1437956 32.4767267,14.3942184 C32.9686212,15.8258559 34.7618354,20.943644 35.2188571,22.3747758 C35.8749542,24.5360402 36.6376243,26.6622733 37.5039658,28.7453858 C37.86679,29.3227593 38.4835819,29.6835378 39.1562981,29.7118802 L39.8243447,29.7118802 C39.9650279,29.7118802 40,29.8190887 40,29.926196 L40,30.6778689 C40,30.7854819 39.9650279,30.9998989 39.7540031,30.9998989 C39.3319534,30.9998989 37.4688944,30.8926904 36.6603633,30.8926904 C35.9923167,30.8926904 33.9182328,30.9998989 33.4612111,30.9998989 C33.2152142,30.9998989 33.1798447,30.8210832 33.1798447,30.6778689 L33.1798447,29.926196 C33.1798447,29.8189875 33.2152142,29.7118802 33.3558974,29.7118802 L33.9181335,29.7118802 C34.0757042,29.7191045 34.2285344,29.6560131 34.3366564,29.5391055 C34.4447783,29.422198 34.4974388,29.2631011 34.4808664,29.1034216 C34.3401831,28.38735 33.3907701,25.5244795 33.1098011,24.7013006 L27.4489907,24.7014017 Z M32.7576957,23.5561928 L30.8943386,17.4002021 C30.823997,17.1853806 30.7886274,17.042672 30.6833137,17.042672 C30.578,17.042672 30.5076584,17.1498804 30.4019473,17.4363091 C30.2962362,17.7227377 28.1520094,23.1980559 27.9763541,23.5560917 L32.7576957,23.5561928 Z" id="Shape" fill-rule="nonzero"></path>
                        <path d="M48.4785343,22.4390471 L48.6593945,22.4390471 C49.0157073,22.43154 49.3639945,22.3348126 49.6705579,22.1582235 C51.3678515,20.4992206 52.9599069,18.7416335 54.4379378,16.8951622 C54.6183897,16.579434 54.5102002,16.1935992 54.0766257,16.1935992 L53.9321009,16.1935992 C53.8239114,16.1935992 53.751649,16.1233933 53.751649,15.9829815 L53.751649,15.1758122 C53.751649,15.0354004 53.8239114,15.0004958 53.9684362,15.0004958 C54.1488881,15.0004958 55.7739758,15.1056063 56.8575037,15.1056063 C57.5796175,15.1056063 58.7355099,15.0004958 58.952093,15.0004958 C59.0606907,15.0004958 59.1329531,15.0707017 59.1329531,15.2106176 L59.1329531,16.017787 C59.1329531,16.1581987 59.0966178,16.2637059 58.9161659,16.2637059 L58.410329,16.2637059 C57.8036153,16.2453151 57.2035632,16.390973 56.6770518,16.6844454 C54.8066574,18.3537253 53.045485,20.1349537 51.4038351,22.0177126 C51.7292201,22.368742 57.6518799,29.1056311 57.9054108,29.2809475 C58.279952,29.5597581 58.7341426,29.719097 59.2056238,29.7370874 L59.7832128,29.7370874 C59.9277376,29.7370874 60,29.8421979 60,29.9826097 L60,30.7195731 C60,30.8599849 59.9277376,30.9999008 59.7832128,30.9999008 C59.5664255,30.9999008 57.6163611,30.8947903 56.7496204,30.8947903 C56.2437836,30.8947903 54.0045674,30.9999008 53.7519552,30.9999008 C53.571095,30.9999008 53.4988326,30.8947903 53.4988326,30.7195731 L53.4988326,29.9826097 C53.4963505,29.9260455 53.5183923,29.8710615 53.5595982,29.8310283 C53.6008041,29.7909951 53.6573988,29.7695805 53.7156199,29.771992 L53.89648,29.771992 C54.2572817,29.771992 54.3659816,29.4911685 54.2572817,29.3158521 C54.0410048,28.9299181 49.960322,24.0173903 49.5984996,23.7719672 C49.3431924,23.5997938 49.0424328,23.5023364 48.731861,23.4911437 L48.4787385,23.4911437 L48.4787385,24.6493424 C48.4787385,25.7368395 48.5510009,28.9300172 48.5510009,29.2457454 C48.5510009,29.5614735 48.94824,29.7371866 49.273625,29.7371866 L50.0316658,29.7371866 C50.1756803,29.7371866 50.2479427,29.8065992 50.2479427,29.9827088 L50.2479427,30.7196723 C50.2479427,30.860084 50.1756803,31 50.0316658,31 C49.8148786,31 48.045164,30.8948895 47.0340006,30.8948895 C46.3113765,30.8948895 44.3248747,31 44.1808602,31 C44.0722624,31 44,30.8948895 44,30.7196723 L44,29.9827088 C44,29.8069958 44.0722624,29.7371866 44.2167872,29.7371866 L45.0111634,29.7371866 C45.3556889,29.7525223 45.6544765,29.5079996 45.6974522,29.1755395 C45.7697146,28.8598113 45.7337875,25.2105929 45.7337875,22.6492681 L45.7337875,21.5969731 C45.7337875,20.6145866 45.6251898,17.1405853 45.6251898,16.7899525 C45.6251898,16.5440336 45.5529274,16.2636067 44.8666386,16.2636067 L44.2169914,16.2636067 C44.0724665,16.2636067 44.0365395,16.1580996 44.0365395,16.0529891 L44.0365395,15.2101218 C44.0365395,15.1050113 44.0724665,15 44.2892538,15 C44.5419681,15 46.1312308,15.1051105 47.3951085,15.1051105 C48.2626657,15.1051105 49.8151848,15 50.0678991,15 C50.248351,15 50.2846863,15.1051105 50.2846863,15.2803277 L50.2846863,16.0525924 C50.2937764,16.1107142 50.2738812,16.1695725 50.2310935,16.2111425 C50.1883058,16.2527125 50.1277234,16.2720414 50.0678991,16.2632101 L49.3457853,16.2632101 C48.731759,16.2632101 48.5508988,16.403126 48.5508988,16.859266 C48.5508988,17.2805013 48.4786364,20.6489954 48.4786364,21.5262714 L48.4785343,22.4390471 Z" id="Shape" fill-rule="nonzero"></path>
                        <path d="M66.9046329,22.1578964 C67.1104908,22.1578964 69.1337912,22.0527903 69.4080746,21.9825873 C70.2997379,21.7370752 70.6427375,21.2456544 70.6427375,20.1581034 C70.6427375,20.0176974 70.6768533,19.9823976 70.8140919,19.9823976 L71.5689043,20.0176974 C71.7056583,20.0176974 71.8088781,20.0879004 71.7742777,20.2283063 C71.7056583,20.5440214 71.7056583,22.4036068 71.7056583,22.7193218 C71.7056583,23.4910587 71.8087811,24.5790064 71.842897,25.0350283 C71.842897,25.1754342 71.7742777,25.2103374 71.6715425,25.2103374 L70.9512336,25.2805403 C70.8484985,25.2805403 70.7798792,25.2805403 70.7453757,25.1401344 C70.5740213,24.2627956 70.3681634,23.7016676 69.476597,23.4910587 C68.6301524,23.3163235 67.7679664,23.2340249 66.904536,23.2455466 L66.904536,24.4389971 C66.904536,25.666855 66.9731553,27.7017495 66.9731553,28.1573747 C66.9731553,29.8064504 67.9674568,29.9124489 69.4425781,29.9124489 C70.7330054,30.0835252 72.0376146,29.7309104 73.0770753,28.9301031 C73.7447322,28.1985066 74.3526771,27.4121743 74.8948085,26.5789978 C75.066163,26.3334857 75.2379051,26.2986817 75.3406402,26.3688847 L75.8895946,26.6845997 C75.9758509,26.7316881 76.018561,26.833755 75.9923298,26.9301118 L74.7576668,30.6494809 C74.6890475,30.82479 74.5176931,31 74.3804545,31 C74.2777194,31 73.7633653,30.9650968 72.3568633,30.929797 C70.9854464,30.929797 68.7223661,30.8948939 65.1205309,30.8948939 C64.8119378,30.8948939 64.1948487,30.929797 63.5772749,30.929797 C62.9942046,30.9650968 62.4112312,31 62.2058579,31 C62.0341158,31 62,30.8948939 62,30.7544879 L62,29.9473521 C62,29.8069462 62.0686193,29.737239 62.2399737,29.737239 L62.5485668,29.737239 C64.1604421,29.737239 64.2640495,29.596833 64.2640495,29.1054123 L64.2640495,21.6315725 C64.2640495,19.7718879 64.229546,17.4914813 64.1954302,17.1404664 C64.0923074,16.4035336 63.8868371,16.2636234 62.5149356,16.2636234 L62.171839,16.2636234 C62.0691039,16.2636234 62.0346004,16.1934204 62.0346004,16.0177147 L62.0346004,15.1757749 C62.0311959,15.1282271 62.048208,15.081521 62.0811962,15.0478477 C62.1141844,15.0141743 62.1598751,14.9968753 62.2063425,15.0004658 C62.7207935,15.0004658 64.6066614,15.1055719 65.1210155,15.1055719 L72.8031796,15.0706687 C73.1462761,15.0706687 73.5921078,15.0004658 73.7293464,15.0004658 C73.7979657,15.0004658 73.866585,15.0706687 73.9352043,15.4913908 C74.0038236,15.8071058 74.9640094,18.8248419 75.0326287,19.070354 C75.0667445,19.2107599 75.0667445,19.2809629 74.9981252,19.3158661 L74.4496553,19.5617748 C74.381036,19.5966779 74.2437974,19.5966779 74.1410623,19.4213688 C74.0724429,19.3158661 72.4255796,17.3510753 71.8429939,16.7899474 C71.4826992,16.4629701 71.0211644,16.2765816 70.5397116,16.2636234 L66.9052144,16.1934204 L66.9046329,22.1578964 Z" id="Shape" fill-rule="nonzero"></path>
                        <path d="M84.2711893,28.7033199 C81.7251842,27.1889155 79,23.3866858 79,18.2457704 C79.0271708,15.0295318 80.2079145,11.9255692 82.3347782,9.4792394 C84.6496645,6.53654053 88.2686489,4.87143855 92.0532167,5.00776633 C94.986057,4.94640751 97.8414035,5.9350845 100.086176,7.78921581 C103.243771,10.4012189 105.045965,14.2628757 104.999108,18.316416 C104.979333,21.1054051 104.035254,23.8122554 102.309598,26.0277394 C99.9289568,29.2739288 96.0531499,31.1369224 91.9815654,30.9921402 C89.252599,30.8995508 86.5952495,30.1107182 84.2711893,28.7033199 Z M101.484644,18.5982027 C101.484644,10.8868793 95.8903653,6.34565607 91.9097113,6.34565607 C89.7957494,6.1439564 87.7051696,6.91064827 86.2435781,8.42363385 C83.9481282,10.7583047 82.6628357,13.8750699 82.6573614,17.1200166 C82.6573614,26.3801718 89.2200995,29.65435 92.2683735,29.65435 C100.157827,29.6536535 101.484543,21.731985 101.484543,18.5983022 L101.484644,18.5982027 Z" id="Shape" fill-rule="nonzero"></path>
                        <path d="M109.478232,28.9530992 C107.833411,27.2089485 106.94116,24.8566603 107.003014,22.4275517 C107.002956,20.1647513 107.837735,17.9862457 109.338745,16.3320419 C110.809168,14.8024901 112.825043,13.9601052 114.915891,14.0014892 C116.407026,13.973846 117.881078,14.3314389 119.20307,15.0415237 C119.516721,15.2206722 119.761021,15.2206722 119.795696,15.0415237 L119.900509,14.6471536 C119.935184,14.5393402 120.039997,14.468005 120.353647,14.468005 C120.771618,14.5036726 120.876529,14.5389349 120.876529,14.8623751 C120.876529,15.2567451 121.224756,18.6270283 121.259924,19.4875089 C121.294599,19.6670627 121.259924,19.8462113 121.155505,19.8462113 L120.318184,19.9896923 C120.178697,20.0253599 120.144022,19.9179518 120.074278,19.7027303 C119.801588,18.6518922 119.273782,17.6895605 118.540405,16.9060671 C117.569471,15.8915014 116.262935,15.2899063 114.880526,15.2208749 C111.499623,15.2208749 109.826164,18.7347403 109.861331,21.6033467 C109.877184,23.79372 110.656271,25.9055957 112.057081,27.5553756 C112.964866,28.6557435 114.315157,29.264139 115.71696,29.2043936 C117.810321,29.3285012 119.811727,28.3060276 120.980554,26.5153411 C121.120042,26.264452 121.224461,26.2283791 121.329274,26.3001196 L121.921899,26.6944897 C122.061387,26.7662302 121.991643,26.9457841 121.886831,27.1606002 C120.557562,29.2072948 118.442546,30.5734265 116.07292,30.9159217 C113.703294,31.2584169 111.30417,30.5447391 109.478035,28.9541125 L109.478232,28.9530992 Z" id="Shape" fill-rule="nonzero"></path>
                        <path d="M127.200533,29.4233077 C125.135116,27.8019994 123.951496,25.308623 124.003119,22.6877374 C123.947004,20.6235434 124.649806,18.6101515 125.979091,17.0269544 C127.578519,14.9735255 130.095636,13.8457785 132.697174,14.0170435 C134.670069,13.9439962 136.596811,14.6230026 138.085691,15.9160201 C140.011026,17.648746 141.075047,20.1381209 140.995283,22.7232767 C141.054689,24.4928851 140.551702,26.235938 139.558203,27.7033442 C138.193002,29.6383664 136.109414,31 132.409352,31 C130.559452,30.9702417 128.754941,30.4240221 127.200533,29.4233077 L127.200533,29.4233077 Z M137.906195,22.794963 C137.906195,18.1016405 134.708781,15.271249 132.58905,15.271249 C131.266721,15.0949927 129.944047,15.5929625 129.068382,16.5967357 C127.728727,18.1056778 127.010213,20.0637138 127.056774,22.0786068 C127.056774,27.7750304 130.900595,29.7817389 132.625294,29.7817389 C137.5469,29.7817389 137.906297,24.7299852 137.906297,22.794963 L137.906195,22.794963 Z" id="Shape" fill-rule="nonzero"></path>
                        <path d="M159.157633,30.3390667 C159.157633,30.6524301 159.048958,31 158.615484,31 C158.309546,30.9629937 158.021029,30.8424128 157.784079,30.6525284 C157.530777,30.4087576 156.302362,28.9827971 154.820133,27.278466 L151.205874,23.1393764 C150.338619,22.1655712 147.411136,18.4094376 146.833137,17.783104 L146.760823,17.783104 L146.760823,22.548134 C146.760823,24.6354211 146.90545,28.1131843 146.977764,28.4261544 C147.086031,29.2257815 147.48345,29.6087374 147.845019,29.6087374 L148.604109,29.6087374 C148.78469,29.6087374 148.78469,29.6775437 148.78469,29.8170238 L148.78469,30.6525284 C148.78469,30.7912222 148.78469,30.8608148 148.604109,30.8608148 C148.350807,30.8608148 146.90545,30.7566224 145.857105,30.7566224 C145.350908,30.7566224 143.724563,30.8608148 143.435819,30.8608148 C143.363505,30.8608148 143.327144,30.7912222 143.327144,30.6174372 L143.327144,29.7131264 C143.327144,29.6435338 143.363505,29.608934 143.471771,29.608934 L144.303175,29.608934 C144.882675,29.5788598 145.339812,29.1234439 145.35101,28.5650448 C145.387372,28.1479806 145.459685,25.6786222 145.459685,21.7482121 L145.459685,18.0957793 C145.494428,17.5973916 145.303772,17.1088543 144.936707,16.7556959 C144.569642,16.4025375 144.061951,16.2191865 143.544085,16.2527545 L143.218877,16.2527545 C143.159125,16.2609847 143.098835,16.2416526 143.056153,16.2005772 C143.013472,16.1595017 142.993384,16.1014801 143.001936,16.0439767 L143.001936,15.2084721 C142.999567,15.1524771 143.02168,15.0980876 143.062905,15.0585071 C143.10413,15.0189266 143.160698,14.9977745 143.218877,15.0001857 C143.291191,15.0001857 143.688713,15.0347855 144.158548,15.0347855 C144.628383,15.0697784 145.206894,15.1043781 145.604313,15.1043781 C146.182313,15.1043781 146.941403,15.0347855 147.375286,15.0347855 C147.880972,15.0347855 148.097913,15.1043781 148.242541,15.3131559 C148.350807,15.4523412 152.507113,20.4957416 153.266204,21.364863 C153.917028,22.0953889 157.277883,26.1648859 157.711765,26.6170413 L157.856393,26.6170413 L157.856393,24.3218611 C157.856393,22.3396511 157.820032,21.2611621 157.747718,20.1481717 C157.76051,19.0519613 157.663817,17.9571042 157.458974,16.8786949 C157.179819,16.4348476 156.656083,16.1898747 156.120964,16.2528528 L155.506501,16.2528528 C155.325921,16.2528528 155.253607,16.1832602 155.253607,16.0090821 L155.253607,15.1744622 C155.253607,15.0702698 155.325921,15.0006772 155.506501,15.0006772 C155.759804,15.0006772 157.314346,15.1048696 158.470447,15.1048696 C159.229027,15.1048696 160.494212,15.0006772 160.747106,15.0006772 C160.928095,15.0006772 161,15.0702698 161,15.2785562 L161,16.0090821 C161,16.1482673 160.928503,16.2528528 160.783569,16.2528528 L160.422,16.2528528 C159.518282,16.2528528 159.337804,16.4962304 159.26549,16.9828872 C159.08491,18.5830259 159.157224,20.7740138 159.157224,22.2004659 L159.157633,30.3390667 Z" id="Shape" fill-rule="nonzero"></path>
                        <path d="M166.904662,22.1578964 C167.110522,22.1578964 169.133834,22.0527903 169.408119,21.9825873 C170.299788,21.7370752 170.642305,21.2456544 170.642305,20.1581034 C170.642305,20.0176974 170.676421,19.9823976 170.813661,19.9823976 L171.568962,20.0176974 C171.705232,20.0176974 171.808453,20.0879004 171.774337,20.2283063 C171.705232,20.5440214 171.705232,22.4036068 171.705232,22.7193218 C171.705232,23.4910587 171.808356,24.5790064 171.842472,25.0350283 C171.842472,25.1754342 171.774627,25.2103374 171.671116,25.2103374 L170.950803,25.2805403 C170.848552,25.2805403 170.779448,25.2805403 170.745429,25.1401344 C170.574073,24.2627956 170.367439,23.7016676 169.47577,23.4910587 C168.629483,23.3163296 167.767453,23.2340309 166.904178,23.2455466 L166.904178,24.4389971 C166.904178,25.666855 166.972798,27.7017495 166.972798,28.1573747 C166.972798,29.8064504 167.967105,29.9124489 169.441751,29.9124489 C170.732497,30.0836634 172.037465,29.7310478 173.077239,28.9301031 C173.744872,28.1986099 174.352667,27.4122661 174.894499,26.5789978 C175.065854,26.3334857 175.238082,26.2986817 175.340333,26.3688847 L175.889291,26.6845997 C175.97564,26.7316149 176.018504,26.833664 175.992414,26.9301118 L174.757259,30.6494809 C174.689415,30.82479 174.517769,31 174.380529,31 C174.277406,31 173.763436,30.9650968 172.356926,30.929797 C170.985501,30.929797 168.721437,30.8948939 165.12055,30.8948939 C164.811955,30.8948939 164.194862,30.929797 163.577284,30.929797 C162.994211,30.9650968 162.411234,31 162.205859,31 C162.034116,31 162,30.8948939 162,30.7544879 L162,29.9473521 C162,29.8069462 162.06862,29.737239 162.239975,29.737239 L162.54857,29.737239 C164.160455,29.737239 164.264063,29.596833 164.264063,29.1054123 L164.264063,21.6315725 C164.264063,19.7718879 164.229559,17.4914813 164.195443,17.1404664 C164.09232,16.4035336 163.886849,16.2636234 162.514939,16.2636234 L162.17184,16.2636234 C162.069104,16.2636234 162.034601,16.1934204 162.034601,16.0177147 L162.034601,15.1757749 C162.031196,15.1282271 162.048208,15.081521 162.081197,15.0478477 C162.114185,15.0141743 162.159876,14.9968753 162.206344,15.0004658 C162.720798,15.0004658 164.606677,15.1055719 165.121034,15.1055719 L172.803245,15.0706687 C173.145859,15.0706687 173.591693,15.0004658 173.728933,15.0004658 C173.798037,15.0004658 173.866172,15.0706687 173.935276,15.4913908 C174.003121,15.8071058 174.964088,18.8248419 175.032223,19.070354 C175.066339,19.2107599 175.066339,19.2809629 174.998107,19.3158661 L174.449149,19.5617748 C174.381305,19.5966779 174.243774,19.5966779 174.140554,19.4213688 C174.07271,19.3158661 172.425061,17.3510753 171.842472,16.7899474 C171.482263,16.4628226 171.020671,16.276412 170.539182,16.2636234 L166.904662,16.1934204 L166.904662,22.1578964 Z" id="Shape" fill-rule="nonzero"></path>
                        <path d="M183.90377,22.1578983 C184.110117,22.1578983 186.132977,22.0527922 186.407266,21.9825893 C187.298949,21.7370772 187.64244,21.2456566 187.64244,20.1581057 C187.64244,20.0176998 187.676557,19.9824 187.813798,19.9824 L188.568142,20.0176998 C188.705384,20.0176998 188.808509,20.0879028 188.77352,20.2283087 C188.705675,20.5440237 188.705675,22.4036087 188.705675,22.7193236 C188.705675,23.4910604 188.8088,24.5790078 188.842916,25.0350296 C188.842916,25.1754355 188.773811,25.2103386 188.671558,25.2103386 L187.951234,25.2805416 C187.848109,25.2805416 187.779876,25.2805416 187.744887,25.1401357 C187.573529,24.2627971 187.368151,23.7016692 186.476565,23.4910604 C185.629937,23.3163376 184.767573,23.2340393 183.903964,23.2455483 L183.903964,24.4389985 C183.903964,25.6668561 183.973069,27.7017502 183.973069,28.1573753 C183.973069,29.8064506 184.966908,29.9124492 186.441576,29.9124492 C187.732351,30.0837926 189.037386,29.7311643 190.077121,28.9301036 C190.744823,28.1984056 191.352935,27.4120848 191.895379,26.5789987 C192.066737,26.3334867 192.237998,26.2986827 192.34122,26.3688857 L192.890186,26.6846006 C192.975975,26.732111 193.01837,26.8339019 192.992439,26.9301127 L191.758234,30.649481 C191.689129,30.8247901 191.517867,31 191.380238,31 C191.277985,31 190.763136,30.9650968 189.356603,30.929797 C187.985156,30.929797 185.722027,30.8948939 182.120598,30.8948939 C181.811999,30.8948939 181.194896,30.929797 180.576824,30.929797 C179.993742,30.9650968 179.410756,31 179.205378,31 C179.03402,31 179,30.8948939 179,30.754488 L179,29.9473523 C179,29.8069464 179.067845,29.7372392 179.239494,29.7372392 L179.548094,29.7372392 C181.160004,29.7372392 181.263614,29.5968333 181.263614,29.1054127 L181.263614,21.6315745 C181.263614,19.7718903 181.229497,17.4914842 181.195769,17.1404694 C181.092643,16.4035367 180.887169,16.2636266 179.514753,16.2636266 L179.172134,16.2636266 C179.069008,16.2636266 179.034892,16.1934237 179.034892,16.017718 L179.034892,15.1757783 C179.031367,15.1282694 179.048286,15.0815528 179.081217,15.0478623 C179.114148,15.0141718 179.159812,14.9968633 179.20625,15.0004692 C179.721197,15.0004692 181.606621,15.1055754 182.121471,15.1055754 L189.803317,15.0706722 C190.146905,15.0706722 190.592747,15.0004692 190.729988,15.0004692 C190.797834,15.0004692 190.86723,15.0706722 190.935366,15.4913941 C191.004471,15.8071091 191.964193,18.8248445 192.033299,19.0703566 C192.067415,19.2107625 192.067415,19.2809654 191.99831,19.3158686 L191.450313,19.5617772 C191.381207,19.5966804 191.243966,19.5966804 191.141713,19.4213713 C191.072608,19.3158686 189.426193,17.3510783 188.843595,16.7899505 C188.483213,16.4631058 188.021717,16.2767372 187.540284,16.2636266 L183.904739,16.1934237 L183.90377,22.1578983 Z" id="Shape" fill-rule="nonzero"></path>
                        <polygon id="Shape" fill-rule="nonzero" points="20 0 20.9481772 0 23.9932584 7.8942759 27.0647751 2.24383176e-16 28 2.24383176e-16 24.4069911 9 23.5258052 9"></polygon>
                        <polygon id="Shape" fill-rule="nonzero" points="35 0 35.83 0 35.83 9 35 9"></polygon>
                        <path d="M44.8394096,7.19708233 C45.0477576,7.53966287 45.3598567,7.82088639 45.7387694,8.00746971 C46.1278506,8.18939515 46.5605614,8.28087643 46.9981486,8.27372062 C47.2790638,8.27555932 47.5583288,8.23460631 47.8243183,8.15256636 C48.0696879,8.07832675 48.2978234,7.96354479 48.4972229,7.81400751 C48.6874486,7.66954238 48.8418374,7.49016204 48.9502393,7.28765956 C49.0641457,7.07067955 49.1211369,6.8326956 49.1167443,6.59236872 C49.1280989,6.33339972 49.0564235,6.07700444 48.9104137,5.85428928 C48.7696122,5.65819044 48.5802786,5.49467547 48.3575155,5.37678765 C48.1108397,5.24537706 47.8496171,5.13789393 47.5781621,5.05611348 C47.2890733,4.96739523 46.991511,4.87864493 46.6854752,4.78986257 C46.3794393,4.70108022 46.081877,4.60027859 45.7927882,4.48745769 C45.509326,4.37770675 45.2462581,4.22883264 45.0129052,4.04611003 C44.7762174,3.85732189 44.5875627,3.62408402 44.460007,3.36255001 C44.3122111,3.0410541 44.2417917,2.6946009 44.2534646,2.3463927 C44.2462374,1.99684716 44.330798,1.65076329 44.5001504,1.33677387 C44.6587605,1.04871695 44.8863629,0.796529344 45.1662762,0.598694424 C45.4552273,0.397131887 45.7825136,0.245479246 46.1318356,0.151289051 C46.5035087,0.0497072765 46.889732,-0.00123252657 47.2778812,0.000134689464 C47.7687386,-0.00384497085 48.2556108,0.0804019511 48.7104383,0.248020151 C49.1659716,0.425123861 49.5597019,0.711613886 49.8492814,1.07667682 L49.0900526,1.57244775 C48.8892547,1.30789665 48.6221481,1.09039514 48.3106992,0.937830197 C47.9817153,0.790490695 47.6182321,0.717896733 47.2515073,0.726291014 C46.976475,0.725078364 46.7026736,0.759693967 46.4384716,0.829079826 C46.1954384,0.891092095 45.9672483,0.99364124 45.765567,1.1314847 C45.5731617,1.26573589 45.4160966,1.43719236 45.3057718,1.63340949 C45.1853947,1.85510759 45.1259395,2.09996936 45.132488,2.34706578 C45.1063015,2.70577853 45.2355297,3.05958465 45.4926132,3.33303068 C45.7458498,3.57096565 46.0526011,3.75655828 46.3919731,3.87716715 C46.7739079,4.01721716 47.1655561,4.13436033 47.5643926,4.22784142 C47.9704127,4.32338696 48.3635937,4.45927216 48.7368121,4.63303511 C49.0942701,4.80064042 49.4025754,5.04317591 49.636172,5.34053753 C49.8977989,5.71333382 50.0237738,6.15133607 49.9962972,6.59265719 C50.0038586,6.94752678 49.9217536,7.29925136 49.7562843,7.62083377 C49.6027283,7.91171859 49.382435,8.16943542 49.1101773,8.37670174 C48.8331309,8.58548707 48.5142106,8.74364937 48.1709918,8.84247256 C47.81387,8.94750349 47.4406959,9.00059552 47.0653014,8.99978079 C46.4763216,9.00535273 45.8919901,8.90465354 45.3462329,8.70352977 C44.8032239,8.49190308 44.3367204,8.14590992 44,7.70506483 L44.8394096,7.19708233 Z" id="Shape" fill-rule="nonzero"></path>
                        <polygon id="Shape" fill-rule="nonzero" points="58 0 58.83 0 58.83 9 58 9"></polygon>
                        <polygon id="Shape" fill-rule="nonzero" points="70.0801862 0.762842033 67 0.762842033 67 0 74 0 74 0.762842033 70.9200162 0.762842033 70.9200162 9 70.0802873 9"></polygon>
                        <path d="M165.000081,40.4775949 C165.001725,40.2484167 165.164837,40.052229 165.389863,40.0087721 C165.61489,39.9653153 165.839323,40.0866607 165.926184,40.298747 C166.013045,40.5108332 165.938205,40.7547473 165.747342,40.8816199 C165.556479,41.0084924 165.30261,40.9830809 165.140681,40.8208949 C165.048554,40.7306956 164.997691,40.606504 165.000081,40.4775949 L165.000081,40.4775949 Z" id="Shape" fill-rule="nonzero"></path>
                        <path d="M172,40.133196 C171.808765,40.420106 171.550009,40.6493385 171.249289,40.7982522 C170.95904,40.9341447 170.644642,41.002866 170.327193,40.9998045 C170.004143,41.0039757 169.683439,40.9413554 169.383133,40.8154683 C169.106524,40.6992269 168.856147,40.5228022 168.648264,40.2976528 C168.440903,40.0695633 168.278711,39.8000321 168.171194,39.5048548 C168.054707,39.1843836 167.996677,38.8435096 168.000168,38.5002318 C167.996445,38.1580156 168.054489,37.818186 168.171194,37.498938 C168.279285,37.2050547 168.441434,36.9367274 168.648264,36.7094691 C168.856455,36.4838929 169.10669,36.3064351 169.383133,36.1883245 C169.682894,36.0600591 170.003811,35.9961038 170.327193,36.0001836 C170.620076,35.997749 170.910579,36.0559123 171.182319,36.1713937 C171.458194,36.294787 171.698343,36.4929689 171.878482,36.7458988 L171.535621,37.0482749 C171.405033,36.8331776 171.218122,36.6627998 170.997612,36.557853 C170.786993,36.4565121 170.558347,36.4037868 170.326923,36.4031932 C170.055163,36.3988759 169.785489,36.4539256 169.534805,36.5648916 C169.307161,36.6665451 169.102296,36.8176595 168.933516,37.008421 C168.765842,37.2011519 168.636162,37.4272326 168.55204,37.6734772 C168.373882,38.2085387 168.373882,38.7918299 168.55204,39.3268914 C168.636267,39.5730833 168.765935,39.7991433 168.933516,39.9919476 C169.102533,40.18242 169.307336,40.3334888 169.534805,40.4354769 C169.785528,40.5462475 170.055201,40.6011026 170.326923,40.5966047 C170.575034,40.5947762 170.819577,40.5339857 171.042438,40.4187364 C171.161657,40.3563493 171.273732,40.2797582 171.376478,40.1904562 C171.484969,40.0949856 171.579195,39.9827508 171.655969,39.8575477 L172,40.133196 Z" id="Shape" fill-rule="nonzero"></path>
                        <path d="M176.000181,38.5002005 C175.996184,38.1579608 176.058528,37.8181081 176.183877,37.4988374 C176.299977,37.2049338 176.474139,36.9365879 176.696294,36.7093139 C176.91991,36.4837221 177.188683,36.306252 177.485608,36.1881332 C178.137605,35.9372889 178.861717,35.9372889 179.513714,36.1881332 C179.810514,36.3064841 180.079242,36.483924 180.303029,36.7093139 C180.524987,36.936611 180.698922,37.2049625 180.814768,37.4988374 C180.941021,37.8178965 181.003842,38.1578367 180.999818,38.5002005 C181.003585,38.8436248 180.940781,39.1846077 180.814768,39.504893 C180.699538,39.8000608 180.525556,40.0696161 180.303029,40.2977459 C180.079574,40.5227097 179.810693,40.6991162 179.513714,40.8155972 C178.860773,41.0614676 178.138549,41.0614676 177.485608,40.8155972 C177.188505,40.6993477 176.919578,40.5229109 176.696294,40.2977459 C176.473569,40.0696406 176.29936,39.8000907 176.183877,39.504893 C176.05876,39.1843996 175.996431,38.843502 176.000181,38.5002005 L176.000181,38.5002005 Z M176.450527,38.5002005 C176.448261,38.7819543 176.49684,39.0618676 176.594004,39.3269173 C176.684471,39.5731263 176.823746,39.7992019 177.003743,39.9920195 C177.185283,40.1825051 177.405259,40.3335844 177.649582,40.4355795 C178.195747,40.6505305 178.805026,40.6505305 179.351191,40.4355795 C179.595223,40.3335678 179.81488,40.1824818 179.996062,39.9920195 C180.176382,39.7994402 180.315699,39.5732973 180.405802,39.3269173 C180.59716,38.7918187 180.59716,38.2084872 180.405802,37.6733887 C180.31581,37.4269564 180.176481,37.2007927 179.996062,37.0082864 C179.815135,36.8175347 179.595411,36.6664028 179.351191,36.5647264 C178.805149,36.3491483 178.195624,36.3491483 177.649582,36.5647264 C177.405071,36.6663869 177.185028,36.8175117 177.003743,37.0082864 C176.823647,37.2010307 176.684359,37.427127 176.594004,37.6733887 C176.496855,37.9384699 176.44834,38.218423 176.45072,38.5002005 L176.450527,38.5002005 Z" id="Shape" fill-rule="nonzero"></path>
                        <polygon id="Shape" fill-rule="nonzero" points="186.0002 36 186.698018 36 188.517615 40.1946222 190.337212 36 191 36 191 41 190.534122 41 190.534122 36.5930628 190.52045 36.5930628 188.61602 41 188.411226 41 186.47955 36.5930628 186.465878 36.5930628 186.465878 41 186 41"></polygon>
                        <path d="M107,46.6324254 C102.538438,46.3749111 98.2733803,47.5630822 93.8408448,47.325757 C90.888458,47.1335096 87.9774127,46.5097062 85.1947224,45.4729929 C78.0313652,42.9488375 71.5105895,45.1942594 64.1577097,44.8943067 C60.308106,44.7415492 56.6028387,42.8116339 52.7074503,42.1646549 C46.8182837,41.2959045 41.4983833,42.6980186 35.6467223,42.7220189 L35.7352992,42.7288173 C28.3894018,42.2549909 22.0707171,39.6592465 14.7438717,41.897252 C12.7583351,42.6125061 10.7234595,43.1723457 8.65650432,43.5720222 C6.42213219,43.8956662 6.47200656,44.3445652 8.66159151,44.7116776 C12.771739,45.3997559 17.0671199,44.4889792 21.2509818,44.8919376 C21.2296026,44.8942381 21.2080607,44.894445 21.1866438,44.8925556 C27.732257,45.9876096 33.2163438,48.6594752 40.0415527,48.0885145 C44.2141429,47.4141359 47.7189152,46.4337274 51.9962416,46.6843403 C56.2355638,47.0846206 60.0582354,48.6657586 64.399002,48.7135532 C70.5634751,48.78164 76.3570824,46.0839199 82.48405,47.3524355 C87.3703425,48.3537542 91.7287647,49.5052553 96.8256269,48.763614 C99.1327159,48.4279183 101.322899,47.6296239 103.642656,47.3594399 C104.691016,47.2372751 106.887184,47.6421906 107,46.6324254 Z" id="Shape" fill-rule="nonzero"></path>
                        <path d="M49,36.8390359 C54.098497,36.8227915 58.8630146,38.4628536 63.9254273,38.4693514 C67.3065492,38.4348934 70.6659909,37.9002667 73.9038111,36.8813763 C82.2469793,34.4325494 89.4978987,37.4184917 97.8897806,37.5440457 C102.280025,37.6287265 106.647316,35.6229019 111.126267,35.1239348 C117.894961,34.4942784 123.843542,36.4488544 130.502179,36.8434377 C130.4684,36.8443809 130.433419,36.8453241 130.39964,36.8458481 C138.796333,36.7620057 146.181967,34.1756773 154.353434,37.2151739 C156.561981,38.1645389 158.836148,38.9375774 161.156408,39.5276521 C163.675887,40.0411868 163.582068,40.5547215 161.064594,40.8394713 C156.33576,41.3739666 151.513908,40.0534488 146.722328,40.2525745 C146.746622,40.2559255 146.771094,40.2576757 146.795599,40.2578146 C139.262621,41.0962386 132.822995,43.8393523 125.097468,42.7464666 C120.398703,41.7071353 116.482465,40.354443 111.595963,40.3741459 C106.741535,40.566669 102.272708,42.1469935 97.3282703,41.9277456 C90.3070869,41.6168999 83.9150716,38.1425756 76.8469788,39.2177496 C71.2109275,40.0641387 66.1643517,41.1131119 60.4195466,39.9369078 C57.8190786,39.4045086 55.3858008,38.3470463 52.7662883,37.888638 C51.5827266,37.6810232 49.0538256,38.0085326 49,36.8390359 Z" id="Shape" fill-rule="nonzero"></path>
                    </g>
                </g>
            </g>
        </g>
    </g>
</svg>